<svg xmlns="http://www.w3.org/2000/svg" viewBox="0 0 400 400"><defs><filter id="thicken" x="-10%" y="-10%" width="120%" height="120%"><feMorphology operator="dilate" radius="4"/></filter></defs><path filter="url(#thicken)" d="M138.362 70.475 C 136.808 70.975,135.296 72.094,134.546 73.302 L 133.812 74.482 133.730 178.897 C 133.650 281.217,133.661 283.340,134.260 284.695 C 135.387 287.242,138.686 288.618,141.509 287.720 C 142.506 287.403,146.949 283.130,164.662 265.450 C 176.718 253.417,186.651 243.642,186.735 243.726 C 186.819 243.810,188.133 246.315,189.655 249.292 C 195.872 261.453,204.766 278.723,208.131 285.167 C 214.081 296.561,223.670 314.888,224.571 316.587 C 225.866 319.029,227.592 320.096,230.251 320.096 C 232.571 320.096,230.749 320.888,259.958 307.185 C 272.932 301.099,273.163 304.009,257.088 271.132 C 253.013 262.799,248.639 253.828,247.367 251.196 C 246.095 248.565,243.727 243.684,242.104 240.351 C 235.743 227.281,233.174 221.908,233.174 221.674 C 233.174 221.392,235.631 221.205,245.455 220.737 C 249.314 220.553,256.419 220.184,261.244 219.917 C 266.069 219.649,275.160 219.168,281.446 218.848 L 292.876 218.265 294.172 217.346 C 296.551 215.660,297.424 212.092,296.127 209.359 C 295.609 208.267,289.834 202.767,275.917 190.112 C 272.155 186.691,268.069 182.957,266.835 181.814 C 265.602 180.671,261.651 177.083,258.054 173.840 C 249.697 166.306,231.375 149.715,227.432 146.112 C 224.783 143.690,212.712 132.817,200.319 121.686 C 198.126 119.717,187.719 110.365,177.193 100.904 C 147.236 73.979,144.735 71.771,143.439 71.095 C 142.034 70.362,139.628 70.068,138.362 70.475 M160.016 102.095 C 167.533 108.861,178.206 118.465,183.732 123.437 C 189.258 128.409,195.646 134.160,197.927 136.216 C 200.207 138.273,206.595 144.015,212.121 148.976 C 239.627 173.670,275.917 206.679,275.917 207.004 C 275.917 207.140,273.800 207.346,271.212 207.463 C 268.624 207.580,265.215 207.748,263.636 207.837 C 260.838 207.994,253.513 208.374,232.695 209.444 C 221.408 210.024,220.548 210.196,219.042 212.169 C 217.059 214.770,217.269 216.500,220.355 222.970 C 223.985 230.583,236.396 256.175,242.149 267.910 C 245.107 273.944,247.528 278.929,247.528 278.986 C 247.528 279.044,249.399 282.846,251.686 287.435 C 253.973 292.023,255.793 295.829,255.731 295.891 C 255.524 296.098,233.158 306.539,232.925 306.538 C 232.729 306.537,213.208 268.870,198.134 239.408 C 192.538 228.470,191.593 227.341,188.038 227.341 C 185.358 227.341,184.870 227.775,165.009 247.792 L 145.807 267.145 145.790 178.363 C 145.780 125.947,145.891 89.624,146.060 89.686 C 146.218 89.745,152.498 95.329,160.016 102.095 " fill="#fff" fill-rule="evenodd"/></svg>