<svg xmlns="http://www.w3.org/2000/svg" viewBox="0 0 400 400"><defs><filter id="thicken" x="-10%" y="-10%" width="120%" height="120%"><feMorphology operator="dilate" radius="4"/></filter></defs><path filter="url(#thicken)" d="M201.563 35.655 C 192.086 36.975,185.612 42.795,182.674 52.637 C 182.451 53.383,182.360 55.132,182.288 60.059 C 182.236 63.604,182.129 66.571,182.052 66.652 C 181.974 66.734,181.363 66.106,180.694 65.258 C 173.853 56.572,163.261 54.190,153.381 59.114 C 148.517 61.538,144.715 65.978,142.864 71.394 C 141.478 75.451,141.558 71.251,141.712 131.857 C 141.804 168.099,141.785 186.507,141.656 186.587 C 141.549 186.654,140.482 185.326,139.284 183.637 C 138.086 181.948,137.018 180.459,136.910 180.328 C 136.802 180.197,135.789 178.791,134.659 177.203 C 132.941 174.790,129.883 170.546,129.342 169.824 C 120.994 158.685,112.938 153.857,102.637 153.821 C 91.825 153.782,83.654 159.479,79.685 169.824 C 78.665 172.482,78.139 178.774,78.717 181.408 C 78.827 181.912,79.014 182.764,79.131 183.301 C 79.818 186.439,81.414 189.911,83.549 192.909 C 84.070 193.640,85.510 195.732,86.749 197.559 C 91.079 203.939,93.804 207.939,96.396 211.719 C 97.832 213.813,100.370 217.549,102.036 220.020 C 103.703 222.490,105.822 225.610,106.745 226.953 C 107.669 228.296,109.224 230.581,110.202 232.031 C 111.180 233.481,112.961 236.118,114.161 237.891 C 115.361 239.663,117.266 242.476,118.393 244.141 C 122.105 249.623,125.792 255.091,129.785 261.035 C 141.936 279.126,142.201 279.510,144.847 282.910 C 156.975 298.489,175.007 308.545,195.508 311.164 C 198.444 311.539,235.091 311.544,238.086 311.170 C 273.732 306.715,300.448 279.867,305.854 243.066 C 306.662 237.571,306.665 237.258,306.600 171.777 L 306.537 108.691 306.105 107.084 C 301.418 89.678,281.028 83.819,268.700 96.336 C 267.646 97.406,266.955 97.974,266.900 97.816 C 266.851 97.674,266.781 92.549,266.745 86.426 C 266.667 73.377,266.635 73.134,264.324 68.447 C 257.183 53.965,235.698 52.413,227.185 65.764 C 226.229 67.263,226.172 67.048,226.172 61.955 C 226.172 54.850,225.570 51.257,223.791 47.754 C 219.471 39.243,210.573 34.400,201.563 35.655 M208.203 44.316 C 212.546 45.677,216.089 49.607,217.289 54.395 C 217.723 56.125,217.685 52.167,217.858 114.063 C 217.978 156.919,218.048 165.714,218.273 166.646 C 219.734 172.678,228.647 173.153,230.831 167.316 L 231.251 166.194 231.356 121.915 C 231.466 75.407,231.454 75.987,232.370 73.633 C 236.906 61.985,253.119 61.994,257.484 73.647 C 258.428 76.169,258.391 74.206,258.395 122.016 L 258.398 166.786 258.859 167.827 C 261.125 172.952,268.744 172.575,270.276 167.262 C 270.450 166.660,270.512 159.526,270.524 138.845 C 270.533 123.657,270.613 110.747,270.702 110.156 C 272.736 96.607,290.751 93.510,296.657 105.694 C 298.411 109.311,298.262 102.672,298.192 174.121 C 298.122 245.075,298.270 237.924,296.683 246.777 C 294.757 257.517,288.536 270.356,280.877 279.395 C 270.681 291.428,256.108 299.820,241.052 302.328 C 235.864 303.193,235.050 303.223,216.895 303.223 C 199.787 303.223,196.849 303.136,193.945 302.543 C 193.462 302.445,192.319 302.225,191.406 302.055 C 177.113 299.394,162.253 290.785,153.308 279.980 C 149.904 275.870,149.386 275.155,144.109 267.285 C 142.020 264.170,138.212 258.501,135.647 254.688 C 133.082 250.874,128.799 244.502,126.131 240.527 C 123.462 236.553,120.111 231.587,118.684 229.492 C 117.257 227.397,115.136 224.277,113.971 222.559 C 112.806 220.840,111.186 218.467,110.371 217.285 C 109.555 216.104,107.833 213.580,106.544 211.678 C 103.295 206.884,99.567 201.423,97.173 197.949 C 88.996 186.083,88.138 184.688,87.450 182.129 C 83.528 167.533,98.770 156.741,112.184 164.616 C 116.998 167.442,119.249 170.005,129.004 183.767 C 131.689 187.555,134.824 191.961,135.969 193.556 C 137.114 195.152,139.467 198.437,141.199 200.856 C 144.588 205.591,145.060 206.069,146.487 206.206 C 147.782 206.331,148.702 205.970,149.526 205.015 L 150.231 204.199 150.178 140.332 C 150.129 80.359,150.147 76.389,150.463 75.228 C 154.167 61.641,172.647 61.455,176.252 74.969 L 176.739 76.793 176.942 120.867 C 177.054 145.108,177.191 165.409,177.248 165.980 C 177.781 171.379,185.472 173.441,188.901 169.104 C 189.514 168.330,189.705 167.996,190.168 166.895 C 190.258 166.680,190.380 141.499,190.440 110.938 C 190.555 51.244,190.486 55.358,191.425 52.734 C 193.790 46.124,201.551 42.230,208.203 44.316 " fill="#fff" fill-rule="evenodd"/></svg>